<svg width="16" height="16" viewBox="0 0 16 16" fill="none" xmlns="http://www.w3.org/2000/svg">
<path d="M7.99948 10.3333C9.61031 10.3337 10.9165 9.02819 10.9168 7.41736C10.9172 5.80653 9.6117 4.50038 8.00087 4.49999C6.39004 4.49961 5.08389 5.80513 5.08351 7.41596C5.08313 9.02679 6.38865 10.3329 7.99948 10.3333ZM7.99948 10.3333C7.03025 10.3331 6.07983 10.6011 5.25348 11.1076C4.42713 11.6141 3.75707 12.3394 3.31746 13.2032M7.99948 10.3333C8.96871 10.3336 9.91895 10.602 10.7451 11.1089C11.5712 11.6158 12.2409 12.3414 12.6801 13.2054M15 8.00166C14.9991 11.8677 11.8644 15.0009 7.99837 15C4.13237 14.9991 0.999114 11.8643 1.00004 7.99832C1.00096 4.13233 4.13572 0.99907 8.00171 0.999993C11.8677 1.00092 15.001 4.13567 15 8.00166Z" stroke="black" stroke-width="1.5" stroke-linecap="round" stroke-linejoin="round"/>
</svg>
