<svg width="32" height="32" viewBox="0 0 32 32" fill="none" xmlns="http://www.w3.org/2000/svg">
<path d="M9.6 8C8.72 8 8 8.72 8 9.6C8 10.48 8.72 11.2 9.6 11.2C10.48 11.2 11.2 10.48 11.2 9.6C11.2 8.72 10.48 8 9.6 8Z" fill="currentColor"/>
<path d="M16 11.2C16.8837 11.2 17.6 10.4837 17.6 9.6C17.6 8.71634 16.8837 8 16 8C15.1163 8 14.4 8.71634 14.4 9.6C14.4 10.4837 15.1163 11.2 16 11.2Z" fill="currentColor"/>
<path d="M22.4 11.2C23.28 11.2 24 10.48 24 9.6C24 8.72 23.28 8 22.4 8C21.52 8 20.8 8.72 20.8 9.6C20.8 10.48 21.52 11.2 22.4 11.2Z" fill="currentColor"/>
<path d="M9.6 14.4C8.72 14.4 8 15.12 8 16C8 16.88 8.72 17.6 9.6 17.6C10.48 17.6 11.2 16.88 11.2 16C11.2 15.12 10.48 14.4 9.6 14.4Z" fill="currentColor"/>
<path d="M16 14.4C15.12 14.4 14.4 15.12 14.4 16C14.4 16.88 15.12 17.6 16 17.6C16.88 17.6 17.6 16.88 17.6 16C17.6 15.12 16.88 14.4 16 14.4Z" fill="currentColor"/>
<path d="M22.4 14.4C21.52 14.4 20.8 15.12 20.8 16C20.8 16.88 21.52 17.6 22.4 17.6C23.28 17.6 24 16.88 24 16C24 15.12 23.28 14.4 22.4 14.4Z" fill="currentColor"/>
<path d="M9.6 20.8C8.72 20.8 8 21.52 8 22.4C8 23.28 8.72 24 9.6 24C10.48 24 11.2 23.28 11.2 22.4C11.2 21.52 10.48 20.8 9.6 20.8Z" fill="currentColor"/>
<path d="M16 20.8C15.12 20.8 14.4 21.52 14.4 22.4C14.4 23.28 15.12 24 16 24C16.88 24 17.6 23.28 17.6 22.4C17.6 21.52 16.88 20.8 16 20.8Z" fill="currentColor"/>
<path d="M22.4 20.8C21.52 20.8 20.8 21.52 20.8 22.4C20.8 23.28 21.52 24 22.4 24C23.28 24 24 23.28 24 22.4C24 21.52 23.28 20.8 22.4 20.8Z" fill="currentColor"/>
</svg>
