<svg width="16" height="16" viewBox="0 0 16 16" fill="none" xmlns="http://www.w3.org/2000/svg">
<circle cx="8.3057" cy="8.95116" r="5.38035" fill="#FFD592"/>
<path d="M10.8 5.2V3.1L12.9 1L13.6 2.4L15 3.1L12.9 5.2H10.8ZM10.8 5.2L7.99998 7.99996M15 8C15 11.866 11.866 15 8 15C4.13401 15 1 11.866 1 8C1 4.13401 4.13401 1 8 1M11.5 8C11.5 9.933 9.933 11.5 8 11.5C6.067 11.5 4.5 9.933 4.5 8C4.5 6.067 6.067 4.5 8 4.5" stroke="#313949" stroke-width="1.5" stroke-linecap="round" stroke-linejoin="round"/>
</svg>
